<?xml version="1.0" encoding="UTF-8" standalone="no"?>
<svg
   xmlns:dc="http://purl.org/dc/elements/1.1/"
   xmlns:cc="http://creativecommons.org/ns#"
   xmlns:rdf="http://www.w3.org/1999/02/22-rdf-syntax-ns#"
   xmlns:svg="http://www.w3.org/2000/svg"
   xmlns="http://www.w3.org/2000/svg"
   xmlns:sodipodi="http://sodipodi.sourceforge.net/DTD/sodipodi-0.dtd"
   xmlns:inkscape="http://www.inkscape.org/namespaces/inkscape"
   viewBox="0 0 107.88382 107.88382"
   id="svg2"
   version="1.1"
   inkscape:version="0.91 r13725"
   sodipodi:docname="wind-mid.svg"
   width="107.88382"
   height="107.88382">
  <metadata
     id="metadata236">
    <rdf:RDF>
      <cc:Work
         rdf:about="">
        <dc:format>image/svg+xml</dc:format>
        <dc:type
           rdf:resource="http://purl.org/dc/dcmitype/StillImage" />
        <dc:title></dc:title>
      </cc:Work>
    </rdf:RDF>
  </metadata>
  <defs
     id="defs234" />
  <sodipodi:namedview
     pagecolor="#ffffff"
     bordercolor="#666666"
     borderopacity="1"
     objecttolerance="10"
     gridtolerance="10"
     guidetolerance="10"
     inkscape:pageopacity="0"
     inkscape:pageshadow="2"
     inkscape:window-width="1920"
     inkscape:window-height="1028"
     id="namedview232"
     showgrid="false"
     showguides="false"
     inkscape:zoom="0.55371699"
     inkscape:cx="-561.89615"
     inkscape:cy="53.941923"
     inkscape:window-x="-8"
     inkscape:window-y="-8"
     inkscape:window-maximized="1"
     inkscape:current-layer="svg2"
     fit-margin-top="0"
     fit-margin-left="0"
     fit-margin-right="0"
     fit-margin-bottom="0" />
  <g
     transform="matrix(0.23385712,-0.09686588,0.09686588,0.23385712,12.510539,71.103402)"
     id="g4"
     style="fill:none;stroke:#000000;stroke-width:0.83529001;stroke-linecap:round">
    <path
       d="M 0,0 177.165,0"
       id="path6"
       inkscape:connector-curvature="0" />
  </g>
  <g
     transform="matrix(0.2252433,-0.11549082,0.11549082,0.2252433,12.510539,71.103402)"
     id="g8"
     style="fill:none;stroke:#000000;stroke-width:0.83529001;stroke-linecap:round">
    <path
       d="M 0,0 141.975,0"
       id="path10"
       inkscape:connector-curvature="0" />
  </g>
  <g
     transform="matrix(0.23638837,-0.09051244,0.09051244,0.23638837,12.510539,71.103402)"
     id="g12"
     style="fill:none;stroke:#000000;stroke-width:0.83529001;stroke-linecap:round">
    <path
       d="M 0,0 141.997,0"
       id="path14"
       inkscape:connector-curvature="0" />
  </g>
  <g
     transform="matrix(0.23875005,-0.08409067,0.08409067,0.23875005,12.510539,71.103402)"
     id="g16"
     style="fill:none;stroke:#000000;stroke-width:0.83529001;stroke-linecap:round">
    <path
       d="M 0,0 141.989,0"
       id="path18"
       inkscape:connector-curvature="0" />
  </g>
  <g
     transform="matrix(0.2409345,-0.07760561,0.07760561,0.2409345,12.510539,71.103402)"
     id="g20"
     style="fill:none;stroke:#000000;stroke-width:0.83529001;stroke-linecap:round">
    <path
       d="M 0,0 141.975,0"
       id="path22"
       inkscape:connector-curvature="0" />
  </g>
  <g
     transform="matrix(0.23385712,0.09686588,-0.09686588,0.23385712,12.510539,36.780669)"
     id="g24"
     style="fill:none;stroke:#000000;stroke-width:0.83529001;stroke-linecap:round">
    <path
       d="M 0,0 177.165,0"
       id="path26"
       inkscape:connector-curvature="0" />
  </g>
  <g
     transform="matrix(0.2409345,0.07760561,-0.07760561,0.2409345,12.510539,36.780669)"
     id="g28"
     style="fill:none;stroke:#000000;stroke-width:0.83529001;stroke-linecap:round">
    <path
       d="M 0,0 141.975,0"
       id="path30"
       inkscape:connector-curvature="0" />
  </g>
  <g
     transform="matrix(0.23115375,0.10314844,-0.10314844,0.23115375,12.510539,36.780669)"
     id="g32"
     style="fill:none;stroke:#000000;stroke-width:0.83529001;stroke-linecap:round">
    <path
       d="M 0,0 141.997,0"
       id="path34"
       inkscape:connector-curvature="0" />
  </g>
  <g
     transform="matrix(0.22828332,0.10936012,-0.10936012,0.22828332,12.510539,36.780669)"
     id="g36"
     style="fill:none;stroke:#000000;stroke-width:0.83529001;stroke-linecap:round">
    <path
       d="M 0,0 141.989,0"
       id="path38"
       inkscape:connector-curvature="0" />
  </g>
  <g
     transform="matrix(0.2252433,0.11549082,-0.11549082,0.2252433,12.510539,36.780669)"
     id="g40"
     style="fill:none;stroke:#000000;stroke-width:0.83529001;stroke-linecap:round">
    <path
       d="M 0,0 141.975,0"
       id="path42"
       inkscape:connector-curvature="0" />
  </g>
  <g
     transform="matrix(0.09686588,-0.23385712,0.23385712,0.09686588,36.780417,95.373282)"
     id="g44"
     style="fill:none;stroke:#000000;stroke-width:0.83529001;stroke-linecap:round">
    <path
       d="M 0,0 177.165,0"
       id="path46"
       inkscape:connector-curvature="0" />
  </g>
  <g
     transform="matrix(0.07760561,-0.2409345,0.2409345,0.07760561,36.780417,95.373282)"
     id="g48"
     style="fill:none;stroke:#000000;stroke-width:0.83529001;stroke-linecap:round">
    <path
       d="M 0,0 141.975,0"
       id="path50"
       inkscape:connector-curvature="0" />
  </g>
  <g
     transform="matrix(0.10315098,-0.23115375,0.23115375,0.10315098,36.780417,95.373282)"
     id="g52"
     style="fill:none;stroke:#000000;stroke-width:0.83529001;stroke-linecap:round">
    <path
       d="M 0,0 141.997,0"
       id="path54"
       inkscape:connector-curvature="0" />
  </g>
  <g
     transform="matrix(0.10936012,-0.2282808,0.2282808,0.10936012,36.780417,95.373282)"
     id="g56"
     style="fill:none;stroke:#000000;stroke-width:0.83529001;stroke-linecap:round">
    <path
       d="M 0,0 141.989,0"
       id="path58"
       inkscape:connector-curvature="0" />
  </g>
  <g
     transform="matrix(0.11549082,-0.2252433,0.2252433,0.11549082,36.780417,95.373282)"
     id="g60"
     style="fill:none;stroke:#000000;stroke-width:0.83529001;stroke-linecap:round">
    <path
       d="M 0,0 141.975,0"
       id="path62"
       inkscape:connector-curvature="0" />
  </g>
  <g
     transform="matrix(-0.23385712,0.09686588,-0.09686588,-0.23385712,95.373027,36.780669)"
     id="g64"
     style="fill:none;stroke:#000000;stroke-width:0.83529001;stroke-linecap:round">
    <path
       d="M 0,0 177.165,0"
       id="path66"
       inkscape:connector-curvature="0" />
  </g>
  <g
     transform="matrix(-0.2249927,0.11597682,-0.11597682,-0.2249927,95.373027,36.780669)"
     id="g68"
     style="fill:none;stroke:#000000;stroke-width:0.83529001;stroke-linecap:round">
    <path
       d="M 0,0 141.975,0"
       id="path70"
       inkscape:connector-curvature="0" />
  </g>
  <g
     transform="matrix(-0.23108036,0.10331802,-0.10331802,-0.23108036,95.373027,36.780669)"
     id="g72"
     style="fill:none;stroke:#000000;stroke-width:0.83529001;stroke-linecap:round">
    <path
       d="M 0,0 141.997,0"
       id="path74"
       inkscape:connector-curvature="0" />
  </g>
  <g
     transform="matrix(-0.22812386,0.10968919,-0.10968919,-0.22812386,95.373027,36.780669)"
     id="g76"
     style="fill:none;stroke:#000000;stroke-width:0.83529001;stroke-linecap:round">
    <path
       d="M 0,0 141.989,0"
       id="path78"
       inkscape:connector-curvature="0" />
  </g>
  <g
     transform="matrix(-0.24110157,0.07708414,-0.07708414,-0.24110157,95.373027,36.780669)"
     id="g80"
     style="fill:none;stroke:#000000;stroke-width:0.83529001;stroke-linecap:round">
    <path
       d="M 0,0 141.975,0"
       id="path82"
       inkscape:connector-curvature="0" />
  </g>
  <g
     transform="matrix(-0.09686588,0.23385712,-0.23385712,-0.09686588,71.10315,12.510791)"
     id="g84"
     style="fill:none;stroke:#000000;stroke-width:0.83529001;stroke-linecap:round">
    <path
       d="M 0,0 177.165,0"
       id="path86"
       inkscape:connector-curvature="0" />
  </g>
  <g
     transform="matrix(-0.07708414,0.24110157,-0.24110157,-0.07708414,71.10315,12.510791)"
     id="g88"
     style="fill:none;stroke:#000000;stroke-width:0.83529001;stroke-linecap:round">
    <path
       d="M 0,0 141.975,0"
       id="path90"
       inkscape:connector-curvature="0" />
  </g>
  <g
     transform="matrix(-0.09034032,0.2364542,-0.2364542,-0.09034032,71.10315,12.510791)"
     id="g92"
     style="fill:none;stroke:#000000;stroke-width:0.83529001;stroke-linecap:round">
    <path
       d="M 0,0 141.997,0"
       id="path94"
       inkscape:connector-curvature="0" />
  </g>
  <g
     transform="matrix(-0.08374387,0.23887155,-0.23887155,-0.08374387,71.10315,12.510791)"
     id="g96"
     style="fill:none;stroke:#000000;stroke-width:0.83529001;stroke-linecap:round">
    <path
       d="M 0,0 141.989,0"
       id="path98"
       inkscape:connector-curvature="0" />
  </g>
  <g
     transform="matrix(-0.11597682,0.2249927,-0.2249927,-0.11597682,71.10315,12.510791)"
     id="g100"
     style="fill:none;stroke:#000000;stroke-width:0.83529001;stroke-linecap:round">
    <path
       d="M 0,0 141.975,0"
       id="path102"
       inkscape:connector-curvature="0" />
  </g>
  <g
     transform="matrix(0.09686588,0.23385712,-0.23385712,0.09686588,36.780417,12.510791)"
     id="g104"
     style="fill:none;stroke:#000000;stroke-width:0.83529001;stroke-linecap:round">
    <path
       d="M 0,0 177.165,0"
       id="path106"
       inkscape:connector-curvature="0" />
  </g>
  <g
     transform="matrix(0.11597682,0.2249927,-0.2249927,0.11597682,36.780417,12.510791)"
     id="g108"
     style="fill:none;stroke:#000000;stroke-width:0.83529001;stroke-linecap:round">
    <path
       d="M 0,0 141.975,0"
       id="path110"
       inkscape:connector-curvature="0" />
  </g>
  <g
     transform="matrix(0.10331802,0.23108036,-0.23108036,0.10331802,36.780417,12.510791)"
     id="g112"
     style="fill:none;stroke:#000000;stroke-width:0.83529001;stroke-linecap:round">
    <path
       d="M 0,0 141.997,0"
       id="path114"
       inkscape:connector-curvature="0" />
  </g>
  <g
     transform="matrix(0.10968919,0.22812386,-0.22812386,0.10968919,36.780417,12.510791)"
     id="g116"
     style="fill:none;stroke:#000000;stroke-width:0.83529001;stroke-linecap:round">
    <path
       d="M 0,0 141.989,0"
       id="path118"
       inkscape:connector-curvature="0" />
  </g>
  <g
     transform="matrix(0.07708414,0.24110157,-0.24110157,0.07708414,36.780417,12.510791)"
     id="g120"
     style="fill:none;stroke:#000000;stroke-width:0.83529001;stroke-linecap:round">
    <path
       d="M 0,0 141.975,0"
       id="path122"
       inkscape:connector-curvature="0" />
  </g>
  <g
     transform="matrix(-0.09686588,-0.23385712,0.23385712,-0.09686588,71.10315,95.373282)"
     id="g124"
     style="fill:none;stroke:#000000;stroke-width:0.83529001;stroke-linecap:round">
    <path
       d="M 0,0 177.165,0"
       id="path126"
       inkscape:connector-curvature="0" />
  </g>
  <g
     transform="matrix(-0.11597682,-0.2249927,0.2249927,-0.11597682,71.10315,95.373282)"
     id="g128"
     style="fill:none;stroke:#000000;stroke-width:0.83529001;stroke-linecap:round">
    <path
       d="M 0,0 141.975,0"
       id="path130"
       inkscape:connector-curvature="0" />
  </g>
  <g
     transform="matrix(-0.10331802,-0.23108036,0.23108036,-0.10331802,71.10315,95.373282)"
     id="g132"
     style="fill:none;stroke:#000000;stroke-width:0.83529001;stroke-linecap:round">
    <path
       d="M 0,0 141.997,0"
       id="path134"
       inkscape:connector-curvature="0" />
  </g>
  <g
     transform="matrix(-0.10968919,-0.22812386,0.22812386,-0.10968919,71.10315,95.373282)"
     id="g136"
     style="fill:none;stroke:#000000;stroke-width:0.83529001;stroke-linecap:round">
    <path
       d="M 0,0 141.989,0"
       id="path138"
       inkscape:connector-curvature="0" />
  </g>
  <g
     transform="matrix(-0.07708414,-0.24110157,0.24110157,-0.07708414,71.10315,95.373282)"
     id="g140"
     style="fill:none;stroke:#000000;stroke-width:0.83529001;stroke-linecap:round">
    <path
       d="M 0,0 141.975,0"
       id="path142"
       inkscape:connector-curvature="0" />
  </g>
  <g
     transform="matrix(-0.23385712,-0.09686588,0.09686588,-0.23385712,95.373027,71.103402)"
     id="g144"
     style="fill:none;stroke:#000000;stroke-width:0.83529001;stroke-linecap:round">
    <path
       d="M 0,0 177.165,0"
       id="path146"
       inkscape:connector-curvature="0" />
  </g>
  <g
     transform="matrix(-0.24110157,-0.07708414,0.07708414,-0.24110157,95.373027,71.103402)"
     id="g148"
     style="fill:none;stroke:#000000;stroke-width:0.83529001;stroke-linecap:round">
    <path
       d="M 0,0 141.975,0"
       id="path150"
       inkscape:connector-curvature="0" />
  </g>
  <g
     transform="matrix(-0.2364542,-0.09034032,0.09034032,-0.2364542,95.373027,71.103402)"
     id="g152"
     style="fill:none;stroke:#000000;stroke-width:0.83529001;stroke-linecap:round">
    <path
       d="M 0,0 141.997,0"
       id="path154"
       inkscape:connector-curvature="0" />
  </g>
  <g
     transform="matrix(-0.23887155,-0.08374387,0.08374387,-0.23887155,95.373027,71.103402)"
     id="g156"
     style="fill:none;stroke:#000000;stroke-width:0.83529001;stroke-linecap:round">
    <path
       d="M 0,0 141.989,0"
       id="path158"
       inkscape:connector-curvature="0" />
  </g>
  <g
     transform="matrix(-0.2249927,-0.11597682,0.11597682,-0.2249927,95.373027,71.103402)"
     id="g160"
     style="fill:none;stroke:#000000;stroke-width:0.83529001;stroke-linecap:round">
    <path
       d="M 0,0 141.975,0"
       id="path162"
       inkscape:connector-curvature="0" />
  </g>
  <g
     transform="matrix(0.17898723,-0.17898723,0.17898723,0.17898723,16.621542,16.621542)"
     id="g164"
     style="fill:#ffffff;fill-rule:evenodd;stroke:#000000;stroke-width:0.4716">
    <path
       d="M 10.6946,208.544 1.69776,22.0709 C 9.99792,17.1662 5.6592,7.16832 0,0 l 0,208.544 10.6946,0 z"
       id="path166"
       inkscape:connector-curvature="0" />
  </g>
  <g
     transform="matrix(0.17898723,-0.17898723,0.17898723,0.17898723,14.70741,18.535672)"
     id="g168"
     style="fill-rule:evenodd;stroke:#000000;stroke-width:0.4716">
    <path
       d="M 0,208.544 8.99681,22.0709 C 0.69665,17.1662 5.03537,7.16832 10.6946,0 l 0,208.544 -10.6946,0 z"
       id="path170"
       inkscape:connector-curvature="0" />
  </g>
  <g
     transform="matrix(-0.17898723,0.17898723,-0.17898723,-0.17898723,91.262025,91.262025)"
     id="g172"
     style="fill-rule:evenodd;stroke:#000000;stroke-width:0.4716">
    <path
       d="M 10.6946,208.544 1.69776,22.0709 C 9.99792,17.1663 5.6592,7.16832 0,0 l 0,208.544 10.6946,0 z"
       id="path174"
       inkscape:connector-curvature="0" />
  </g>
  <g
     transform="matrix(-0.17898723,0.17898723,-0.17898723,-0.17898723,93.175902,89.347639)"
     id="g176"
     style="fill:#ffffff;fill-rule:evenodd;stroke:#000000;stroke-width:0.4716">
    <path
       d="M 0,208.544 8.99682,22.0709 C 0.69665,17.1663 5.03537,7.16832 10.6946,0 l 0,208.544 -10.6946,0 z"
       id="path178"
       inkscape:connector-curvature="0" />
  </g>
  <g
     transform="matrix(-0.17898723,-0.17898723,0.17898723,-0.17898723,16.621542,91.262025)"
     id="g180"
     style="fill:#ffffff;fill-rule:evenodd;stroke:#000000;stroke-width:0.4716">
    <path
       d="M 10.6946,208.544 1.69776,22.0709 C 9.99792,17.1663 5.6592,7.16832 0,0 l 0,208.544 10.6946,0 z"
       id="path182"
       inkscape:connector-curvature="0" />
  </g>
  <g
     transform="matrix(-0.17898723,-0.17898723,0.17898723,-0.17898723,18.535926,93.175902)"
     id="g184"
     style="fill-rule:evenodd;stroke:#000000;stroke-width:0.4716">
    <path
       d="M 0,208.544 8.99682,22.0709 C 0.69665,17.1663 5.03537,7.16832 10.6946,0 l 0,208.544 -10.6946,0 z"
       id="path186"
       inkscape:connector-curvature="0" />
  </g>
  <g
     transform="matrix(0.17898723,0.17898723,-0.17898723,0.17898723,91.262025,16.621288)"
     id="g188"
     style="fill-rule:evenodd;stroke:#000000;stroke-width:0.4716">
    <path
       d="M 10.6946,208.544 1.69776,22.0709 C 9.99792,17.1663 5.6592,7.16832 0,0 l 0,208.544 10.6946,0 z"
       id="path190"
       inkscape:connector-curvature="0" />
  </g>
  <g
     transform="matrix(0.17898723,0.17898723,-0.17898723,0.17898723,89.347639,14.70741)"
     id="g192"
     style="fill:#ffffff;fill-rule:evenodd;stroke:#000000;stroke-width:0.4716">
    <path
       d="M 0,208.544 8.99682,22.0709 C 0.69665,17.1663 5.03537,7.16832 10.6946,0 l 0,208.544 -10.6946,0 z"
       id="path194"
       inkscape:connector-curvature="0" />
  </g>
  <g
     transform="matrix(0,0.253125,-0.253125,0,107.7559,50.305896)"
     id="g196"
     style="fill:#ffffff;fill-rule:evenodd;stroke:#000000;stroke-width:1.01350999;stroke-linejoin:round">
    <path
       d="M 12.411,28.7295 C 13.2154,17.2376 5.59476,17.2376 5.74582,17.2376 c 0,0 7.46958,0 8.61868,-17.2376 l 0,212.598 L 0,198.233 12.411,28.7295 Z"
       id="path198"
       inkscape:connector-curvature="0" />
  </g>
  <g
     transform="matrix(0,0.253125,-0.253125,0,107.7559,53.942034)"
     id="g200"
     style="fill-rule:evenodd;stroke:#000000;stroke-width:1.01350999;stroke-linejoin:round">
    <path
       d="M 1.95358,28.7295 C 1.14918,17.2376 8.76979,17.2376 8.61874,17.2376 c 0,0 -7.46956,0 -8.61874,-17.2376 L 0,212.598 14.3645,198.233 1.95358,28.7295 Z"
       id="path202"
       inkscape:connector-curvature="0" />
  </g>
  <g
     transform="matrix(0,-0.253125,0.253125,0,0.12791591,57.577921)"
     id="g204"
     style="fill-rule:evenodd;stroke:#000000;stroke-width:1.01350999;stroke-linejoin:round">
    <path
       d="M 12.4111,28.7295 C 13.2155,17.2376 5.59483,17.2376 5.74588,17.2376 c 1e-5,0 7.46962,0 8.61882,-17.2376 l 0,212.598 L 0,198.233 12.4111,28.7295 Z"
       id="path206"
       inkscape:connector-curvature="0" />
  </g>
  <g
     transform="matrix(0,-0.253125,0.253125,0,0.12791591,53.941782)"
     id="g208"
     style="fill:#ffffff;fill-rule:evenodd;stroke:#000000;stroke-width:1.01350999;stroke-linejoin:round">
    <path
       d="M 1.9536,28.7295 C 1.1492,17.2376 8.76988,17.2376 8.61882,17.2376 8.61882,17.2376 1.1492,17.2376 0,0 L 0,212.598 14.3647,198.233 1.9536,28.7295 Z"
       id="path210"
       inkscape:connector-curvature="0" />
  </g>
  <g
     transform="matrix(0.253125,0,0,0.253125,50.305896,0.12791591)"
     id="g212"
     style="fill:#ffffff;fill-rule:evenodd;stroke:#000000;stroke-width:1.01350999;stroke-linejoin:round">
    <path
       d="M 12.411,28.7295 C 13.2154,17.2376 5.59476,17.2376 5.74582,17.2376 c 0,0 7.46958,0 8.61868,-17.2376 l 0,212.598 L 0,198.233 12.411,28.7295 Z"
       id="path214"
       inkscape:connector-curvature="0" />
  </g>
  <g
     transform="matrix(0.253125,0,0,0.253125,53.942034,0.12791591)"
     id="g216"
     style="fill-rule:evenodd;stroke:#000000;stroke-width:1.01350999;stroke-linejoin:round">
    <path
       d="M 1.95358,28.7295 C 1.14918,17.2376 8.76979,17.2376 8.61874,17.2376 c 0,0 -7.46956,0 -8.61874,-17.2376 L 0,212.598 14.3645,198.233 1.95358,28.7295 Z"
       id="path218"
       inkscape:connector-curvature="0" />
  </g>
  <g
     transform="matrix(-0.253125,0,0,-0.253125,57.577921,107.7559)"
     id="g220"
     style="fill-rule:evenodd;stroke:#000000;stroke-width:1.01350999;stroke-linejoin:round">
    <path
       d="M 12.4111,28.7295 C 13.2155,17.2376 5.59483,17.2376 5.74588,17.2376 c 1e-5,0 7.46962,0 8.61882,-17.2376 l 0,212.598 L 0,198.233 12.4111,28.7295 Z"
       id="path222"
       inkscape:connector-curvature="0" />
  </g>
  <g
     transform="matrix(-0.253125,0,0,-0.253125,53.942034,107.7559)"
     id="g224"
     style="fill:#ffffff;fill-rule:evenodd;stroke:#000000;stroke-width:1.01350999;stroke-linejoin:round">
    <path
       d="M 1.9536,28.7295 C 1.1492,17.2376 8.76988,17.2376 8.61882,17.2376 8.61882,17.2376 1.1492,17.2376 0,0 L 0,212.598 14.3647,198.233 1.9536,28.7295 Z"
       id="path226"
       inkscape:connector-curvature="0" />
  </g>
  <g
     transform="matrix(0.17898723,0.17898723,-0.17898723,0.17898723,53.942034,53.942034)"
     id="g228"
     style="fill:none;stroke:#ffffff;stroke-width:1.01350999;stroke-linecap:round">
    <path
       d="M 0,0 20.3175,0"
       id="path230"
       inkscape:connector-curvature="0" />
  </g>
</svg>
