<?xml version="1.0" encoding="utf-8"?>
<!-- Generator: Adobe Illustrator 18.0.0, SVG Export Plug-In . SVG Version: 6.00 Build 0)  -->
<!DOCTYPE svg PUBLIC "-//W3C//DTD SVG 1.1//EN" "http://www.w3.org/Graphics/SVG/1.1/DTD/svg11.dtd">
<svg version="1.1" id="Calque_1" xmlns="http://www.w3.org/2000/svg" xmlns:xlink="http://www.w3.org/1999/xlink" x="0px" y="0px" viewBox="0.3 -178.3 610.2 593.7" enable-background="new 0.3 -178.3 610.2 593.7" xml:space="preserve">
	<path
		fill="rgb(0, 18, 37)"
		d="M607,117.5l-92,15.1c-1.5,26.1-7.7,50.5-18.4,73.1
	c-10.7,22.6-25.2,42.6-43,59.7c-17.5,17.1-38,31.1-61.5,41.5c-23.2,10.7-47.8,16.5-74.3,18.3l-10.7,86.7l-14.5-86.7
	c-27.9-1.8-53.8-7.5-77.2-18.3c-23.5-10.5-43.7-24.7-60.9-41.8c-17.2-17.4-31.2-37.7-41.9-60.6c-10.4-22.9-16.6-47.3-18.1-73.7
	L4,117.5l90.5-11.6c1.5-26.1,7.7-50.5,18.1-73.1c10.7-22.6,24.6-42.6,42.2-59.8c17.5-17.1,38-30.8,61.5-41.2
	c23.5-10.1,49-16.3,76.3-17.7l14.5-89l11.6,88.2c26.4,1.7,51.1,7.8,74.2,18.2c23.1,10.5,43.6,24.6,61.2,41.8
	c17.5,17.4,31.8,37.4,42.4,60c10.7,22.9,16.9,47,18.4,72.5L607,117.5L607,117.5z M234.4-48.2c-23.1,11.6-43,25.3-59.4,40.9
	c-16.7,15.7-30,34-40.4,55.1l88.2,35.4l3.3-5.2L178-8.1l92.9,45.5l2.1-0.9L234.4-48.2L234.4-48.2z M222.8,158.9l-1.5-3.8l-87.3,34
	c19.9,44.7,51.9,77.1,95.9,96.6l39.2-83.8l-3.9-1.5L178,245.6L222.8,158.9L222.8,158.9z M475.8,50.2c-19.3-42.9-49.9-74.3-92.1-94.6
	l-41,82.4l4.4,3.2l86.7-49.3l-46.3,89.3c0.9,0.9,1.8,1.7,2.4,2.9c0.3,0.9,1.2,2.3,2.1,3.8L475.8,50.2L475.8,50.2z M341.8,201.3
	c-0.6,0.3-2.1,0.6-4.4,0.6l42.4,83.8c41.3-19.2,72.5-49.9,93.6-91.9l-84.3-36.3l-2.4,2.9l47.2,85.3L341.8,201.3L341.8,201.3z
	 M343.3,118c0-10.1-3.3-18.3-10.4-24.9c-6.8-6.4-15.5-9.9-25.9-9.9c-10.7,0-19.8,3.5-27.3,9.9c-7.7,6.7-11.3,14.8-11.3,24.9
	c0,10.7,3.6,19.7,11.3,27.5c7.4,7.8,16.6,11.9,27.3,11.9c10.4,0,19-4.1,25.9-11.9C340.1,137.8,343.3,128.8,343.3,118L343.3,118z
	 M381.4-46.7c-9.2-3.4-18.7-6.4-28.5-9C343-58,333-60,322.6-60.9l14,96.6c0,1.2,0.9,1.7,3,1.7L381.4-46.7L381.4-46.7z M218.4,149.1
	L118.6,134c2.1,19.7,7.1,37.7,15.5,54.2l86.4-34.5L218.4,149.1L218.4,149.1z M289.3,301.7l-15.4-98.3l-2.4-1.5L232,287.1
	c6.2,4.1,14.9,7.3,25.5,9.6C268.5,299,278.9,300.5,289.3,301.7L289.3,301.7z M134.1,50.2c-8.9,21.1-14,38.6-15.5,52.8l101.8-13.6
	l0.9-2.3L134.1,50.2L134.1,50.2z M334.2,205.1l-13.1,96.6c9.2-1.2,18.7-2.6,28.2-4.9c9.5-2.3,18.7-5.5,27.3-9.6l-40.1-83.8
	C336.5,204.5,335.6,205.1,334.2,205.1L334.2,205.1z M488.8,136.9l-96.8,14.5l-0.6,2.9l82,36.3c4.1-9,7.4-18,9.5-26.7
	C485.3,154.9,487.4,145.9,488.8,136.9L488.8,136.9z M289.3-60.9C278.9-60,270-58.6,262-56.8c-8,1.7-16.3,4.3-25.2,7.2l38,85.3
	L289.3-60.9L289.3-60.9z M488.8,103c-1.2-9.6-2.4-18.3-4.2-26.1c-1.7-7.8-4.4-16-7.4-24.4l-83.4,36.9L488.8,103L488.8,103z
	 M491.8,43.2c-9.2-22.6-22.9-42.9-41-60.6c-17.8-18-37.7-32.5-59.4-43.5l-4.8,9.9c43.9,23.2,76,56,96.8,98.9L491.8,43.2L491.8,43.2z
	 M231.4-56.3l-4.8-6.9c-24.7,9-46,22.6-64.1,40.3c-18.1,18-32,39.2-42.4,64.1l10.1,3.7C149.2-1.4,183-35.1,231.4-56.3L231.4-56.3z
	 M480.2,196.7c-24.1,45.2-57,76.8-98.9,94.3l4.7,9.3c47.2-22.3,82-55.1,104.2-98.9L480.2,196.7L480.2,196.7z M222.2,299.3l5.3-9
	c-22.2-9-41.8-21.8-59.1-38.3c-17.5-16.3-30.3-36-39.2-59.2l-10.1,2.9C140.3,243.6,174.7,278.1,222.2,299.3L222.2,299.3z
	 M308.6,76.6c4.8,0.9,9.5,2.6,14.3,4.6c5,1.7,8.6,4.1,11.3,6.7l18.7-18.3c-7.4-6.4-14.2-10.7-21.1-13.1c-6.5-2.3-14.3-3.8-23.1-4.1
	V76.6L308.6,76.6z M304.2,52.5c-16.6,0.9-31.2,7.5-44.3,20.3l17.8,15.1c4.8-4.1,8.9-6.7,12.5-7.8c3.6-1.5,8-2.6,13.9-3.5V52.5
	L304.2,52.5z M374.5,116.6c-1.2-8.7-3-16.3-5.7-22.9c-2.4-7-6.8-13.9-13.1-20.9l-18.4,16.5c8,8.1,12.2,17.1,12.2,27.3L374.5,116.6
	L374.5,116.6z M374.5,121.8h-25c-0.9,6.1-1.8,10.7-2.7,14.5c-0.6,3.5-3.3,7.3-7.4,11.3l15.4,16.5
	C365.9,153.7,372.4,139.5,374.5,121.8L374.5,121.8z M239.1,121.8c0.6,8.1,2.4,16,5.3,23.5c3.3,7.5,7.7,14.2,14,20.3l15.4-16.5
	c-4.2-4-6.8-8.4-8.6-13.3c-1.5-4.6-2.1-9.3-2.1-13.9H239.1L239.1,121.8z M308.6,184.5c8.9,0,16.3-1.5,22.9-4.4
	c6.5-3.2,13.4-7.5,20.5-13.1l-15.5-16.5c-4.2,2.6-7.7,4.9-10.4,7c-3,1.7-8.6,3.8-17.5,5.2V184.5L308.6,184.5z M304.2,162.7
	c-11.6,0-20.2-3.8-26.4-11.3l-16.3,16.5c6.2,4.9,12.7,9,19.3,12.2c6.8,2.9,14.5,4.4,23.4,4.4L304.2,162.7L304.2,162.7z M263.2,116.6
	c0-10.2,3.6-19.2,10.7-27.3l-16.9-14.2c-5.3,6.4-9.2,12.8-12.4,19.2c-3,6.4-4.8,13.6-5.3,22.4L263.2,116.6L263.2,116.6z M507.2,134
	l-11.6,2.3c-0.3,9.9-2.1,19.7-4.4,29c-2.7,9.3-6,18.9-10.1,29l9.2,4.6C500.7,177.8,506.3,156,507.2,134L507.2,134z M319.6-76l1.5,9
	c10.7,0.6,21.4,2.3,32.1,5.2c10.7,3.2,21.1,6.3,31.2,9.8l4.8-9.8c-11.3-3.5-22.9-6.7-34.5-9.3C343-73.9,331.5-75.4,319.6-76
	L319.6-76z M289.3,306.3c-19.6-2-39.5-7.3-59.4-15.4l-3.8,9.3c17.5,9.6,39.2,15.1,64.7,16.5L289.3,306.3L289.3,306.3z M321.1,306.3
	l-2.4,10.5c11.9-0.6,22.9-2,33-4.9c10-2.9,20.2-6.4,30.5-11l-2.4-9C361.1,300.5,341.6,305.1,321.1,306.3L321.1,306.3z M507.2,104.4
	c-0.3-9.9-2.1-19.7-4.5-29.3c-2.7-9.6-5.9-19.4-10.1-29.6l-7.7,4.6c2.6,8.4,4.8,17.4,6.8,26.7c2.1,9.3,3.6,18.3,3.8,27L507.2,104.4
	L507.2,104.4z M128.4,189.1c-5.9-12.2-9.8-21.8-11-28.7c-1.5-7-2.7-15.9-3.6-26.4l-11.6-2.3c0.9,11,3,21.4,5.6,31.3
	c3,9.9,6.5,20,10.7,30.8L128.4,189.1L128.4,189.1z M102.3,104.4l11.6-0.6c0.9-11.6,2.7-21.8,5-30.8c2.4-8.7,5.6-17.1,9.5-25.3
	l-9.2-4.6C110.9,62.9,105.2,83.2,102.3,104.4L102.3,104.4z M290.8-76c-10.1,0.6-20.5,1.5-30.6,2.9c-9.8,1.7-20.2,4.4-30.3,8.4l3,7.5
	c8.9-2.6,17.8-4.6,27.3-6.7c9.8-2,19.6-3.5,30-3.8L290.8-76z"/>
</svg>
